<?xml version="1.0" encoding="UTF-8"?>
<svg width="21px" height="21px" viewBox="0 0 21 21" version="1.1" xmlns="http://www.w3.org/2000/svg" xmlns:xlink="http://www.w3.org/1999/xlink">
    <!-- Generator: Sketch 64 (93537) - https://sketch.com -->
    <title>Shape</title>
    <desc>Created with Sketch.</desc>
    <g id="Page-1" stroke="none" stroke-width="1" fill="none" fill-rule="evenodd">
        <g id="Extra-large:-Desktops---12-col" transform="translate(-417.000000, -135.000000)" fill="#EBEBEB">
            <g id="book_1" transform="translate(165.000000, 102.000000)">
                <g id="Group-2" transform="translate(25.000000, 25.000000)">
                    <g id="Shape-2" transform="translate(227.000000, 8.000000)">
                        <path d="M15,13.2 L14.04,13.2 L13.68,12.84 C14.88,11.52 15.6,9.72 15.6,7.8 C15.6,3.48 12.12,0 7.8,0 C3.48,0 0,3.48 0,7.8 C0,12.12 3.48,15.6 7.8,15.6 C9.72,15.6 11.52,14.88 12.84,13.68 L13.2,14.04 L13.2,15 L19.2,21 L21,19.2 L15,13.2 L15,13.2 Z M7.8,13.2 C4.8,13.2 2.4,10.8 2.4,7.8 C2.4,4.8 4.8,2.4 7.8,2.4 C10.8,2.4 13.2,4.8 13.2,7.8 C13.2,10.8 10.8,13.2 7.8,13.2 L7.8,13.2 Z" id="Shape"></path>
                    </g>
                </g>
            </g>
        </g>
    </g>
</svg>