<?xml version="1.0" encoding="UTF-8"?>
<svg width="40px" height="40px" viewBox="0 0 40 40" version="1.1" xmlns="http://www.w3.org/2000/svg" xmlns:xlink="http://www.w3.org/1999/xlink">
    <!-- Generator: Sketch 64 (93537) - https://sketch.com -->
    <title>Group</title>
    <desc>Created with Sketch.</desc>
    <g id="Page-1" stroke="none" stroke-width="1" fill="none" fill-rule="evenodd">
        <g id="Extra-large:-Desktops---12-col" transform="translate(-405.000000, -127.000000)">
            <g id="book_1" transform="translate(165.000000, 102.000000)">
                <g id="Group-2" transform="translate(25.000000, 25.000000)">
                    <g id="Group" transform="translate(215.000000, -12.000000)">
                        <circle id="Oval" fill="#FFAB00" cx="26" cy="26" r="26"></circle>
                        <path d="M27,33.2 L26.04,33.2 L25.68,32.84 C26.88,31.52 27.6,29.72 27.6,27.8 C27.6,23.48 24.12,20 19.8,20 C15.48,20 12,23.48 12,27.8 C12,32.12 15.48,35.6 19.8,35.6 C21.72,35.6 23.52,34.88 24.84,33.68 L25.2,34.04 L25.2,35 L31.2,41 L33,39.2 L27,33.2 L27,33.2 Z M19.8,33.2 C16.8,33.2 14.4,30.8 14.4,27.8 C14.4,24.8 16.8,22.4 19.8,22.4 C22.8,22.4 25.2,24.8 25.2,27.8 C25.2,30.8 22.8,33.2 19.8,33.2 L19.8,33.2 Z" id="Shape" fill="#EBEBEB"></path>
                    </g>
                </g>
            </g>
        </g>
    </g>
</svg>